<mxfile host="app.diagrams.net" modified="2021-05-24T21:05:22.497Z" agent="5.0 (Windows)" etag="3AbYBV3_M4tOQq4hnIyc" version="14.7.0" type="github">
  <diagram id="_4k45IfOBsskdnUbPDaa" name="Page-1">
    <mxGraphModel dx="259" dy="570" grid="1" gridSize="10" guides="1" tooltips="1" connect="1" arrows="1" fold="1" page="1" pageScale="1" pageWidth="827" pageHeight="1169" math="0" shadow="0">
      <root>
        <mxCell id="0" />
        <mxCell id="1" parent="0" />
        <mxCell id="VEzm1wGkJV7xHXXM20gM-1" value="Actor" style="shape=umlActor;verticalLabelPosition=bottom;verticalAlign=top;html=1;" vertex="1" parent="1">
          <mxGeometry x="40" y="260" width="30" height="60" as="geometry" />
        </mxCell>
        <mxCell id="VEzm1wGkJV7xHXXM20gM-2" value="Vuelos" style="html=1;" vertex="1" parent="1">
          <mxGeometry x="150" y="80" width="110" height="50" as="geometry" />
        </mxCell>
        <mxCell id="VEzm1wGkJV7xHXXM20gM-3" value="Ventana Controlador" style="html=1;" vertex="1" parent="1">
          <mxGeometry x="150" y="250" width="120" height="50" as="geometry" />
        </mxCell>
        <mxCell id="VEzm1wGkJV7xHXXM20gM-4" value="Controlador" style="html=1;" vertex="1" parent="1">
          <mxGeometry x="150" y="380" width="110" height="50" as="geometry" />
        </mxCell>
        <mxCell id="VEzm1wGkJV7xHXXM20gM-5" value="Ventana de InformaciÃ³n" style="html=1;" vertex="1" parent="1">
          <mxGeometry x="150" y="490" width="130" height="50" as="geometry" />
        </mxCell>
      </root>
    </mxGraphModel>
  </diagram>
</mxfile>
